<?xml version="1.0" encoding="utf-8"?><!-- Uploaded to: SVG Repo, www.svgrepo.com, Generator: SVG Repo Mixer Tools -->
<svg width="800px" height="800px" viewBox="0 0 200 200" xmlns="http://www.w3.org/2000/svg"><title>Virtual Reality icons</title><circle cx="100" cy="114" r="10" fill="none" stroke="#ffc548" stroke-miterlimit="10" stroke-width="8"/><path d="M140,88a17,17,0,0,1,17,17h0a17,17,0,0,1-17,17H127l-6,24" fill="none" stroke="#220728" stroke-miterlimit="10" stroke-width="8"/><path d="M79,146l-6-24H60a17,17,0,0,1-17-17h0A17,17,0,0,1,60,88" fill="none" stroke="#220728" stroke-miterlimit="10" stroke-width="8"/><path d="M53,177V167a20,20,0,0,1,20-20h54a20,20,0,0,1,20,20v10" fill="none" stroke="#220728" stroke-miterlimit="10" stroke-width="8"/><path d="M170.33,36V78a10,10,0,0,1-10,10H40A10,10,0,0,1,30,78V36" fill="none" stroke="#220728" stroke-miterlimit="10" stroke-width="8"/><line y1="48" x2="60" y2="48" fill="#ffffff" stroke="#ffc548" stroke-miterlimit="10" stroke-width="8"/><line x1="140" y1="48" x2="200" y2="48" fill="#ffffff" stroke="#ffc548" stroke-miterlimit="10" stroke-width="8"/></svg>