<?xml version="1.0" ?><svg height="24" id="svg3171" version="1.1" viewBox="0 0 6.3499999 6.3500002" width="24" xmlns="http://www.w3.org/2000/svg" xmlns:cc="http://creativecommons.org/ns#" xmlns:dc="http://purl.org/dc/elements/1.1/" xmlns:inkscape="http://www.inkscape.org/namespaces/inkscape" xmlns:rdf="http://www.w3.org/1999/02/22-rdf-syntax-ns#" xmlns:sodipodi="http://sodipodi.sourceforge.net/DTD/sodipodi-0.dtd" xmlns:svg="http://www.w3.org/2000/svg"><defs id="defs3165"/><g id="layer1"><path d="M 3.7805675,0.97937759 4.1226026,1.3215785 H 3.1755475 c -0.3448258,-0.01439 -0.3634816,0.511424 0,0.529323 h 0.9470551 l -0.3420351,0.341682 c -0.25289,0.253011 0.1423967,0.608101 0.375102,0.375283 l 0.6060531,-0.606862 0.60657,0.606862 c 0.2540228,0.254144 0.60545,-0.144823 0.3751022,-0.375283 l -0.60657,-0.606343 0.60657,-0.60686291 c 0.24105,-0.241165 -0.1360882,-0.611938 -0.3751022,-0.373216 L 4.7617226,1.2119895 4.1556695,0.60616159 c -0.2320029,-0.232113 -0.6261945,0.122001 -0.375102,0.373216 z M 1.8513238,1.3215785 c -0.2890638,0 -0.5290695,0.240119 -0.5290695,0.529323 0.012818,0.359959 0.5402366,0.347235 0.5290695,0 h 0.5290695 c 0.3535031,5.292e-4 0.3533005,-0.52881 0,-0.529323 z m -0.5290695,1.324342 v 0.26363 c 0,0.289201 0.2400057,0.5298401 0.5290695,0.5298401 h 0.2655681 c 0.3520739,0 0.3519741,-0.5293241 0,-0.5298401 H 1.8513238 v -0.26363 c 0.01096,-0.347363 -0.5165251,-0.359829 -0.5290695,0 z m 1.5872085,0.26363 c -0.3519743,5.16e-4 -0.3520741,0.5298401 0,0.5298401 h 0.5295861 c 0.3465375,0.01034 0.3589372,-0.5174141 0,-0.5298401 z m 1.3221572,0 c -0.3452109,-0.0096 -0.357508,0.518168 0,0.5298401 h 0.265568 v 0.2656969 c -8e-7,0.351554 0.5290687,0.351453 0.529586,0 V 3.4393906 c 0,-0.2892041 -0.2405224,-0.5298401 -0.529586,-0.5298401 z m -3.1868172,0.795537 c -0.28081641,0 -0.51563611,0.232863 -0.51563611,0.5138151 v 1.086046 c 0,0.2809529 0.2348197,0.5158849 0.51563611,0.5158849 h 1.0855225 c 0.2808163,0 0.515636,-0.234932 0.515636,-0.5158849 v -0.277069 h 0.5295862 c 0.348184,0.0047 0.3544972,-0.5241872 0,-0.52984 H 2.6459613 v -0.279137 c 0,-0.2809521 -0.2348197,-0.5138151 -0.515636,-0.5138151 z M 4.497188,4.4980396 H 3.9681185 c -0.3527645,0 -0.3526618,0.529323 0,0.52984 H 4.497188 c 0.2890636,0 0.5295865,-0.2406362 0.529586,-0.52984 0.00971,-0.3466762 -0.5178007,-0.359142 -0.529586,0 z" id="path2879" style="color:#000000;font-style:normal;font-variant:normal;font-weight:normal;font-stretch:normal;font-size:medium;line-height:normal;font-family:sans-serif;font-variant-ligatures:normal;font-variant-position:normal;font-variant-caps:normal;font-variant-numeric:normal;font-variant-alternates:normal;font-variant-east-asian:normal;font-feature-settings:normal;font-variation-settings:normal;text-indent:0;text-align:start;text-decoration:none;text-decoration-line:none;text-decoration-style:solid;text-decoration-color:#000000;letter-spacing:normal;word-spacing:normal;text-transform:none;writing-mode:lr-tb;direction:ltr;text-orientation:mixed;dominant-baseline:auto;baseline-shift:baseline;text-anchor:start;white-space:normal;shape-padding:0;shape-margin:0;inline-size:0;clip-rule:nonzero;display:inline;overflow:visible;visibility:visible;isolation:auto;mix-blend-mode:normal;color-interpolation:sRGB;color-interpolation-filters:linearRGB;solid-color:#000000;solid-opacity:1;vector-effect:none;fill:#000000;fill-opacity:1;fill-rule:nonzero;stroke:none;stroke-width:0.529196;stroke-linecap:round;stroke-linejoin:miter;stroke-miterlimit:4;stroke-dasharray:none;stroke-dashoffset:0;stroke-opacity:1;color-rendering:auto;image-rendering:auto;shape-rendering:auto;text-rendering:auto;enable-background:accumulate;stop-color:#000000"/></g></svg>